<svg xmlns="http://www.w3.org/2000/svg" xmlns:xlink="http://www.w3.org/1999/xlink" xmlns:sketch="http://www.bohemiancoding.com/sketch/ns" width="563" height="500" viewBox="0 0 563 500" version="1.1">
  <title>react-logo</title>
  <g stroke="none" stroke-width="1" fill="none" fill-rule="evenodd" sketch:type="MSPage">
    <g id="react-logo" sketch:type="MSLayerGroup" transform="translate(12.000000, 12.000000)">
      <g sketch:type="MSShapeGroup">
        <g id="logo">
          <circle id="Oval" fill="#181818" cx="269.53" cy="237.63" r="50.17"/>
          <path d="M269.53 135.63C336.89 135.63 399.46 145.29 446.64 161.54 503.48 181.1 538.43 210.77 538.43 237.63 538.43 265.62 501.39 297.13 440.35 317.36 394.2 332.65 333.47 340.63 269.53 340.63 203.98 340.63 141.9 333.14 95.24 317.19 36.19 297.01 0.63 265.08 0.63 237.63 0.63 210.99 34 181.55 90.04 162.01 137.4 145.5 201.52 135.63 269.53 135.63L269.53 135.63 269.53 135.63Z" id="Shape" stroke="#181818" stroke-width="24"/>
          <path d="M180.74 186.92C214.39 128.57 254.02 79.2 291.66 46.44 337.01 6.98 380.16-8.48 403.43 4.94 427.68 18.92 436.47 66.75 423.5 129.73 413.69 177.35 390.26 233.95 358.32 289.33 325.57 346.12 288.07 396.15 250.95 428.61 203.96 469.67 158.54 484.54 134.76 470.82 111.68 457.51 102.85 413.9 113.93 355.59 123.28 306.32 146.76 245.84 180.74 186.92L180.74 186.92 180.74 186.92Z" id="Shape" stroke="#181818" stroke-width="24"/>
          <path d="M180.82 289.48C147.07 231.19 124.09 172.2 114.51 123.23 102.97 64.23 111.13 19.12 134.37 5.66 158.6-8.36 204.43 7.91 252.51 50.6 288.87 82.88 326.2 131.44 358.24 186.77 391.08 243.51 415.7 300.98 425.27 349.36 437.39 410.57 427.58 457.34 403.82 471.1 380.76 484.44 338.57 470.31 293.58 431.6 255.57 398.89 214.9 348.34 180.82 289.48L180.82 289.48 180.82 289.48Z" id="Shape" stroke="#181818" stroke-width="24"/>
        </g>
      </g>
    </g>
  </g>
</svg>
